<svg width="100" height="88" viewBox="0 0 100 88" fill="none" xmlns="http://www.w3.org/2000/svg">
<path d="M49.9631 0.195931C49.9244 0.190275 38.6733 3.01231 24.9602 6.46787L0.0275001 12.7502L0.0157272 19.033L0.00354004 25.3163L0.180893 25.3626C0.278071 25.3876 11.4984 28.2119 25.1148 31.6388C38.7311 35.0651 49.9061 37.8688 49.949 37.8688C49.991 37.8688 61.2041 35.0552 74.8671 31.6166C88.53 28.1781 99.7466 25.3532 99.7907 25.3395L99.8733 25.3141L99.8728 19.0308V12.7478L74.9526 6.47726C61.2412 3.02815 49.9984 0.201013 49.9565 0.196035L49.9631 0.195931ZM0.0388241 37.7212C0.0237778 37.7212 0.0166575 40.5474 0.023219 44.0016L0.0349919 50.282L24.9439 56.5544C38.644 60.0038 49.9061 62.8249 49.9706 62.823C50.0356 62.8207 61.287 60.0001 74.9734 56.5534L99.8586 50.2867L99.8704 43.9983L99.8827 37.7098L99.7762 37.7381C99.7177 37.7537 88.4847 40.5813 74.8129 44.0224L49.9605 50.2739L25.013 43.9986C11.2926 40.5453 0.0565957 37.7199 0.0407575 37.7199L0.0388241 37.7212ZM0.0940288 62.6946L0.0109973 62.6705L0.0233226 68.9589L0.0350955 75.2469L24.9904 81.5297L49.9458 87.8125L74.9136 81.5306L99.8814 75.2493V68.96L99.8818 62.6711L99.7993 62.6961C99.754 62.7102 88.5374 65.5351 74.8744 68.9736C61.2115 72.4122 49.9994 75.2258 49.9587 75.2258C49.9182 75.2258 38.7012 72.4118 25.0317 68.9723C11.3622 65.5327 0.140765 62.7079 0.0955134 62.6947L0.0940288 62.6946Z" fill="#C30C13"/>
</svg>
