<svg width="120" height="120" viewBox="0 0 120 120" fill="none" xmlns="http://www.w3.org/2000/svg">
<g clip-path="url(#clip0_302_2)">
<mask id="mask0_302_2" style="mask-type:luminance" maskUnits="userSpaceOnUse" x="0" y="0" width="120" height="120">
<path d="M120 0H0V120H120V0Z" fill="white"/>
</mask>
<g mask="url(#mask0_302_2)">
<path d="M47.3684 107.368C66.5558 107.368 82.1053 91.819 82.1053 72.6316C82.1053 53.4442 66.5558 37.8948 47.3684 37.8948C28.1811 37.8948 12.6316 53.4442 12.6316 72.6316C12.6316 91.819 28.1811 107.368 47.3684 107.368ZM47.3684 120C21.2084 120 0 98.7916 0 72.6316C0 46.4716 21.2084 25.2632 47.3684 25.2632C73.5284 25.2632 94.7368 46.4716 94.7368 72.6316C94.7368 98.7916 73.5284 120 47.3684 120Z" fill="#FBCC5C"/>
<path d="M72.6316 82.1053C91.819 82.1053 107.368 66.5558 107.368 47.3684C107.368 28.1811 91.819 12.6316 72.6316 12.6316C53.4442 12.6316 37.8948 28.1811 37.8948 47.3684C37.8948 66.5558 53.4442 82.1053 72.6316 82.1053ZM72.6316 94.7368C46.4716 94.7368 25.2632 73.5284 25.2632 47.3684C25.2632 21.2084 46.4716 0 72.6316 0C98.7916 0 120 21.2084 120 47.3684C120 73.5284 98.7916 94.7368 72.6316 94.7368Z" fill="#35D07F"/>
<path d="M74.1979 94.7369C77.4821 90.7579 79.8316 86.0969 81.0821 81.0821C86.0842 79.8316 90.7453 77.4821 94.7369 74.1979C94.56 79.9958 93.3095 85.7053 91.0484 91.0611C85.7053 93.3095 79.9958 94.56 74.1979 94.7369ZM38.9179 38.9179C33.9158 40.1684 29.2548 42.5179 25.2632 45.8021C25.44 40.0042 26.6906 34.2948 28.9516 28.9516C34.2948 26.7032 40.0169 25.4527 45.8021 25.2632C42.5179 29.2421 40.1684 33.9032 38.9179 38.9179Z" fill="#5EA33B"/>
</g>
</g>
<defs>
<clipPath id="clip0_302_2">
<rect width="120" height="120" fill="white"/>
</clipPath>
</defs>
</svg>
