<svg width="100" height="88" viewBox="0 0 100 88" fill="none" xmlns="http://www.w3.org/2000/svg">
<path d="M49.9596 8.48862e-06C49.9209 -0.00564801 38.6697 2.81639 24.9567 6.27194L0.02396 12.5543L0.0121872 18.837L0 25.1204L0.177353 25.1667C0.274531 25.1917 11.4949 28.016 25.1112 31.4429C38.7275 34.8692 49.9025 37.6729 49.9455 37.6729C49.9875 37.6729 61.2006 34.8593 74.8635 31.4207C88.5265 27.9821 99.7431 25.1573 99.7872 25.1436L99.8698 25.1182L99.8693 18.8349V12.5519L74.949 6.28133C61.2377 2.83223 49.9948 0.00508978 49.953 0.000112062L49.9596 8.48862e-06ZM0.0352841 37.5252C0.0202378 37.5252 0.0131174 40.3514 0.019679 43.8056L0.0314519 50.0861L24.9404 56.3584C38.6404 59.8079 49.9025 62.629 49.967 62.6271C50.0321 62.6248 61.2834 59.8041 74.9699 56.3575L99.8551 50.0908L99.8668 43.8024L99.8792 37.5139L99.7726 37.5422C99.7141 37.5578 88.4811 40.3854 74.8094 43.8265L49.9569 50.078L25.0095 43.8027C11.2891 40.3494 0.0530556 37.524 0.0372174 37.524L0.0352841 37.5252ZM0.0904888 62.4987L0.0074573 62.4746L0.0197826 68.763L0.0315554 75.051L24.9869 81.3338L49.9422 87.6166L74.91 81.3347L99.8778 75.0534V68.764L99.8783 62.4752L99.7957 62.5002C99.7505 62.5143 88.5338 65.3391 74.8709 68.7777C61.208 72.2163 49.9959 75.0299 49.9552 75.0299C49.9147 75.0299 38.6976 72.2159 25.0281 68.7764C11.3586 65.3368 0.137225 62.512 0.0919734 62.4988L0.0904888 62.4987Z" fill="#C30C13"/>
</svg>
