<svg width="260" height="260" viewBox="0 0 260 260" fill="none" xmlns="http://www.w3.org/2000/svg">
<circle cx="130" cy="130" r="130" fill="black"/>
<path d="M199.279 170.38L176.168 198.093C175.666 198.695 175.058 199.175 174.382 199.503C173.707 199.831 172.978 200 172.242 200H62.6831C62.1603 200 61.6489 199.829 61.2118 199.509C60.7746 199.188 60.4307 198.732 60.2224 198.196C60.014 197.66 59.9502 197.067 60.0389 196.491C60.1275 195.915 60.3647 195.381 60.7214 194.953L83.85 167.24C84.3511 166.64 84.957 166.161 85.6303 165.833C86.3036 165.505 87.03 165.335 87.7645 165.333H197.317C197.84 165.333 198.351 165.504 198.789 165.825C199.225 166.145 199.569 166.602 199.778 167.138C199.986 167.674 200.05 168.266 199.961 168.842C199.872 169.418 199.635 169.953 199.279 170.38ZM176.168 114.573C175.666 113.971 175.058 113.491 174.382 113.163C173.707 112.835 172.978 112.666 172.242 112.667H62.6831C62.1603 112.667 61.6489 112.837 61.2118 113.158C60.7746 113.479 60.4307 113.935 60.2224 114.471C60.014 115.007 59.9502 115.599 60.0389 116.175C60.1275 116.751 60.3647 117.286 60.7214 117.713L83.85 145.427C84.3511 146.027 84.957 146.506 85.6303 146.834C86.3036 147.162 87.03 147.332 87.7645 147.333H197.317C197.84 147.333 198.351 147.163 198.789 146.842C199.225 146.521 199.569 146.065 199.778 145.529C199.986 144.993 200.05 144.401 199.961 143.825C199.872 143.249 199.635 142.714 199.279 142.287L176.168 114.573ZM62.6831 94.6667H172.242C172.978 94.667 173.707 94.4981 174.382 94.17C175.058 93.842 175.666 93.362 176.168 92.76L199.279 65.0467C199.635 64.6193 199.872 64.0848 199.961 63.5087C200.05 62.9327 199.986 62.3403 199.778 61.8042C199.569 61.2682 199.225 60.8118 198.789 60.4913C198.351 60.1708 197.84 60 197.317 60H87.7645C87.03 60.0014 86.3036 60.1713 85.6303 60.4993C84.957 60.8273 84.3511 61.3063 83.85 61.9067L60.7273 89.62C60.371 90.0469 60.1339 90.5809 60.0451 91.1562C59.9562 91.7316 60.0195 92.3236 60.2271 92.8594C60.4348 93.3952 60.7777 93.8515 61.214 94.1726C61.6502 94.4936 62.1608 94.6653 62.6831 94.6667Z" fill="url(#paint0_linear_408_6)"/>
<defs>
<linearGradient id="paint0_linear_408_6" x1="71.8176" y1="203.337" x2="201.196" y2="72.8953" gradientUnits="userSpaceOnUse">
<stop offset="0.08" stop-color="#9945FF"/>
<stop offset="0.3" stop-color="#8752F3"/>
<stop offset="0.5" stop-color="#5497D5"/>
<stop offset="0.6" stop-color="#43B4CA"/>
<stop offset="0.72" stop-color="#28E0B9"/>
<stop offset="0.97" stop-color="#19FB9B"/>
</linearGradient>
</defs>
</svg>
