<svg width="512" height="512" viewBox="0 0 512 512" fill="none" xmlns="http://www.w3.org/2000/svg">
<circle cx="256" cy="256" r="256" fill="#09090B"/>
<path d="M147.389 254.195L205.011 181.268L178.367 181.321H170.93C163.868 181.428 157.768 184.745 152.632 191.273L124.008 227.71L95.3834 191.327C90.1401 184.692 84.0408 181.428 77.0854 181.428H54.614C50.7618 181.428 48.8892 183.033 48.8892 186.244C48.8892 187.849 49.6382 189.561 51.0828 191.38L100.787 254.249L48.1936 321.559C46.749 323.431 46 325.143 46 326.695C46.428 329.852 48.4076 331.404 51.8854 331.404H74.1427C81.0981 331.404 87.1975 328.14 92.3338 321.559L124.168 280.841L156.11 321.452C161.299 327.979 167.345 331.243 174.301 331.243L208.061 331.19L147.389 254.195ZM439.89 330.922L463.111 301.334L406.023 301.387C387.297 301.387 374.51 298.016 367.768 291.168C361.027 284.319 357.603 272.655 357.603 256.122C357.549 239.588 360.92 227.871 367.715 220.969C374.51 214.066 387.243 210.642 405.969 210.642L466 210.588L442.566 181L404.739 181.054C374.51 181.107 352.52 187.153 338.769 199.245C332.51 204.756 327.748 211.766 324.324 220.166C328.122 230.385 329.995 242.371 330.048 256.122C330.102 269.872 328.176 281.858 324.431 292.077C327.855 300.424 332.617 307.433 338.93 312.944C352.734 324.983 374.724 330.976 404.953 330.976L439.89 330.922ZM320.899 230.599C320.043 227.068 318.866 223.59 317.475 220.166C314.051 211.819 309.289 204.756 302.976 199.299C289.225 187.207 267.182 181.161 236.953 181.214L213.037 181.268L189.656 210.856L235.829 210.802C254.555 210.802 267.343 214.173 274.084 221.076C280.879 227.924 284.25 239.642 284.25 256.175C284.25 272.708 280.933 284.426 274.138 291.275C267.343 298.123 254.662 301.548 235.936 301.548L192.759 301.601L216.033 331.136H237.113C267.343 331.083 289.332 325.036 303.136 312.998C309.396 307.487 314.158 300.477 317.582 292.131C318.973 288.76 320.097 285.282 320.953 281.697C322.879 273.297 323.789 264.736 323.735 256.175C323.789 247.561 322.825 239 320.899 230.599Z" fill="white"/>
<path d="M155.682 254.302L185.643 292.291L185.536 216.313L155.682 254.302Z" fill="white"/>
</svg>
